<?xml version="1.0" encoding="utf-8"?>
<!-- Generator: Adobe Illustrator 16.0.0, SVG Export Plug-In . SVG Version: 6.00 Build 0)  -->
<!DOCTYPE svg PUBLIC "-//W3C//DTD SVG 1.0//EN" "http://www.w3.org/TR/2001/REC-SVG-20010904/DTD/svg10.dtd">
<svg version="1.0" id="Layer_1" xmlns="http://www.w3.org/2000/svg" xmlns:xlink="http://www.w3.org/1999/xlink" x="0px" y="0px"
	 width="997.161px" height="1004.684px" viewBox="0 0 997.161 1004.684" enable-background="new 0 0 997.161 1004.684"
	 xml:space="preserve">
<g>
	<path fill="#FCD116" d="M956.737,531.847l30.756-30.756l-30.756-30.755l-461.07,30.219l1.296-0.711l437.898-57.65l-25.098-25.098
		l-410.979,81.748l367.179-201.439l3.092-35.358L496.706,499.258l-1.479,0.294l372.497-273.125l3.79-43.33l-43.329-3.79
		L493.237,499.948l-0.712,0.142L793.337,171.81l-35.357-3.094L492.816,499.103l152.49-392.125l-20.36-29.073l-133.16,422.332
		l-0.595,0.118L601.032,51.473l-24.948-35.629l-35.628,24.948L490.1,500.572l-0.51,0.102l19.352-443.225l-29.074,20.358
		l9.204,421.844L351.62,94.729l-34.285-9.184l171.749,414.634l0.008,0.376L282.026,80.668l-42.014-11.257l-11.256,42.014
		l260.174,389.379l-0.139,0.028l-273.47-356.391l-9.187,34.283l282.507,322.137l-1.15,0.229l1.211-0.16l0.066,0.076l-1.277,0.083
		l1.433,0.094l0.094,0.107l-1.527-0.201l1.617,0.322l0.015,0.691l-0.396,0.452l-0.238-0.13l0.226,0.144l-0.011,0.013l-0.215-0.157
		l0.191,0.184l-0.011,0.013l-0.18-0.197l0.168,0.21L206.135,824.792l9.188,34.283l273.423-356.333l0.089,0.111l-260.08,389.237
		l11.257,42.014l42.012-11.258l207.002-419.755l0.104,0.13l-0.405,0.978l-0.233,0.291l0.206-0.225l-0.019,0.046l-0.188,0.179
		l0.162-0.119l-0.009,0.021l-0.153,0.098l0.146-0.08L317.335,917.974l34.284-9.186l137.323-404.545l0.227-0.124l0.009,0.414
		l-9.31,426.726l29.074,20.357l-19.392-444.117l0.343-0.884l50.56,461.657l35.629,24.949l24.947-35.629L490.375,505.378l0.159-0.408
		l0.058,0.072l134.357,426.119l20.357-29.072L491.195,505.794L757.979,838.2l35.358-3.094L490.913,505.067l-0.201-0.517
		l337.472,323.06l43.331-3.791l-3.791-43.328L490.851,504.155l0.071-0.182L869.054,744.87l-3.092-35.357L490.991,503.796l0.334-0.86
		l1.45-0.795l416.988,82.946l25.098-25.098l-441.564-58.135l0.625-0.343L956.737,531.847z M495.48,500.039l-0.924,0.588
		l-0.874,0.057l0.68-0.499L495.48,500.039z M492.378,500.77l-0.216,0.014l0.126-0.325l0.481-0.063L492.378,500.77z M490.431,504.532
		l-0.002,0.007l-0.207-0.226l0.046-0.188l0.05,0.047L490.431,504.532z M491.435,501.349l-0.079,0.25l-0.191-0.025l0.21-0.229
		L491.435,501.349z M489.467,503.49l0.003-0.067l0.03-0.032l0.046,0.044l0.005,0.042l-0.051,0.048L489.467,503.49z M489.672,501.601
		l-0.037,0.056l-0.022-0.044l0.042-0.054L489.672,501.601z M489.71,501.531l0.007,0.001l-0.004,0.007L489.71,501.531z
		 M489.857,502.789l-0.088,0.11l-0.155-0.633l0.053-0.157l0.196,0.623L489.857,502.789z M489.711,501.979l0.001-0.004l0.201,0.3
		l-0.002,0.017l-0.159-0.207L489.711,501.979z M489.56,501.769l-0.019,0.028l0.003-0.074l0.001,0.002L489.56,501.769z
		 M489.628,501.985l0.006,0.021l-0.053,0.127l-0.027-0.112l0.038-0.077L489.628,501.985z M489.506,503.071l0.012,0.106l-0.036-0.027
		l0.004-0.092L489.506,503.071z M489.49,502.972l0.001-0.038l0.004,0.041L489.49,502.972z M489.807,503.055l0.024-0.026
		l-0.009,0.085L489.807,503.055z M489.782,502.161l0.128,0.146l-0.016,0.143L489.782,502.161z M489.918,502.232l-0.173-0.352
		l0.019-0.057l0.157,0.38L489.918,502.232z M489.713,501.815l-0.029-0.058l0.029-0.058l0.024,0.058L489.713,501.815z
		 M489.925,502.166l-0.139-0.409l0.067-0.197l0.135,0.027L489.925,502.166z M489.764,501.691l-0.019-0.057l0.043-0.087l0.033,0.007
		L489.764,501.691z M489.859,501.402l0.075-0.151l0.013,0l-0.064,0.154L489.859,501.402z M489.81,501.396l-0.028-0.004l0.111-0.144
		l0.015,0.001L489.81,501.396z M489.638,501.518l-0.045,0.052l-0.034-0.069L489.638,501.518L489.638,501.518z M489.56,501.362
		l0.001-0.029l0.013,0.031L489.56,501.362z M489.535,503.726l0.049,0.062l0.001,0.006l-0.135,0.086l0.004-0.095L489.535,503.726z
		 M490.793,501.979l0.18-0.196l0.288,0.057l-0.566,0.542L490.793,501.979z M490.919,501.466l0.037-0.149l0.079,0.005
		L490.919,501.466z M490.007,501.421l-0.102-0.013l0.053-0.156l0.066,0.004L490.007,501.421z M489.752,501.388l-0.095-0.012
		l-0.05-0.146l0.269,0.018L489.752,501.388z M489.143,502.902l-0.017-0.013l0.016-0.032L489.143,502.902z M489.446,503.967
		l0.149-0.082l0.071,0.647l-0.175,1.597l-0.07-1.598L489.446,503.967z M490.548,502.983l0.483-0.354l-0.096,0.306l-0.444,0.283
		L490.548,502.983z M491.661,500.542l-0.233,0.291l-0.359,0.023l0.06-0.244L491.661,500.542z M490.081,500.75l-0.019,0.172
		l-0.484,0.032l0.006-0.139L490.081,500.75z M488.852,500.911l0.138-0.018l0.063,0.095l-0.135,0.009L488.852,500.911z
		 M489.105,501.196l0.001,0.046l-0.038-0.049L489.105,501.196z M489.128,502.244l0.003,0.166l-0.179,0.269l-0.111-0.061
		L489.128,502.244z M488.826,502.638l0.108,0.069l-0.019,0.028l-0.104-0.077L488.826,502.638z M488.762,502.721l0.016-0.021
		l0.097,0.093l-0.02,0.03L488.762,502.721z M489.078,502.986l0.068,0.065l0.002,0.09l-0.095-0.104L489.078,502.986z
		 M489.158,503.609l0.001,0.05l-0.031,0.039L489.158,503.609z M489.075,503.854l0.086-0.094l0.002,0.088l-0.127,0.122
		L489.075,503.854z M488.96,504.192l0.02-0.06l0.186-0.136l0.001,0.064L488.96,504.192z M489.544,507.345l-0.01-0.221l0.287-1.173
		l0.042,0.382L489.544,507.345z M490.283,505.001l-0.115-0.469l0.003-0.013l0.189,0.236L490.283,505.001z M490.606,503.976
		l-0.166-0.122l-0.065-0.167l0.013-0.053l0.271,0.173L490.606,503.976z M490.711,503.643l-0.287-0.157l0.016-0.064l0.412-0.226
		L490.711,503.643z M491.455,502.603l0.155-0.399l0.316-0.232l0.396,0.079L491.455,502.603z M492.744,501.782l-0.473-0.062
		l0.396-0.29l0.572,0.037L492.744,501.782z"/>
	<polygon fill="#FCD116" points="485.574,499.045 55.147,309.653 15.726,328.036 34.109,367.455 	"/>
	<polygon fill="#FCD116" points="60.04,433.549 485.574,499.045 45.04,401.382 	"/>
	<polygon fill="#FCD116" points="85.329,290.693 485.574,499.045 117.497,275.69 	"/>
	<polygon fill="#FCD116" points="15.726,673.437 55.146,691.817 485.574,502.425 34.109,634.017 	"/>
	<polygon fill="#FCD116" points="85.328,710.782 117.496,725.782 485.574,502.425 	"/>
	<polygon fill="#FCD116" points="45.041,600.091 485.574,502.425 60.041,567.923 	"/>
</g>
<circle fill="#FCD116" cx="501.61" cy="504.532" r="236.842"/>
</svg>
